HIERARCHY
ROOT mixamorig:Hips
{
	OFFSET -0.000008 104.274872 1.554316
	CHANNELS 6 Xposition Yposition Zposition Xrotation Yrotation Zrotation
	JOINT mixamorig:Spine
	{
		OFFSET -0.000005 10.181595 0.131519
		CHANNELS 6 Xposition Yposition Zposition Xrotation Yrotation Zrotation
		JOINT mixamorig:Spine1
		{
			OFFSET -0.000000 9.893959 -1.470707
			CHANNELS 6 Xposition Yposition Zposition Xrotation Yrotation Zrotation
			JOINT mixamorig:Spine2
			{
				OFFSET -0.000000 9.220757 -1.370641
				CHANNELS 6 Xposition Yposition Zposition Xrotation Yrotation Zrotation
				JOINT mixamorig:Neck
				{
					OFFSET 0.000001 16.740417 -2.049036
					CHANNELS 6 Xposition Yposition Zposition Xrotation Yrotation Zrotation
					JOINT mixamorig:Head
					{
						OFFSET 0.000000 9.617874 1.685006
						CHANNELS 6 Xposition Yposition Zposition Xrotation Yrotation Zrotation
						JOINT mixamorig:HeadTop_End
						{
							OFFSET 0.000002 22.037354 7.501101
							CHANNELS 6 Xposition Yposition Zposition Xrotation Yrotation Zrotation
							End Site
							{
								OFFSET 0.000168 2310.654297 -282.823242
							}
						}
					}
				}
				JOINT mixamorig:RightShoulder
				{
					OFFSET -4.569970 11.014908 -2.160885
					CHANNELS 6 Xposition Yposition Zposition Xrotation Yrotation Zrotation
					JOINT mixamorig:RightArm
					{
						OFFSET -10.592851 -0.524811 -2.232101
						CHANNELS 6 Xposition Yposition Zposition Xrotation Yrotation Zrotation
						JOINT mixamorig:RightForeArm
						{
							OFFSET -27.841511 0.000031 -0.000004
							CHANNELS 6 Xposition Yposition Zposition Xrotation Yrotation Zrotation
							JOINT mixamorig:RightHand
							{
								OFFSET -28.328831 -0.000015 0.000015
								CHANNELS 6 Xposition Yposition Zposition Xrotation Yrotation Zrotation
								JOINT mixamorig:RightHandThumb1
								{
									OFFSET -2.464806 -1.573990 2.681852
									CHANNELS 6 Xposition Yposition Zposition Xrotation Yrotation Zrotation
									JOINT mixamorig:RightHandThumb2
									{
										OFFSET -3.215179 -1.872803 1.924282
										CHANNELS 6 Xposition Yposition Zposition Xrotation Yrotation Zrotation
										JOINT mixamorig:RightHandThumb3
										{
											OFFSET -2.654831 -1.527969 1.512609
											CHANNELS 6 Xposition Yposition Zposition Xrotation Yrotation Zrotation
											JOINT mixamorig:RightHandThumb4
											{
												OFFSET -2.018814 -1.152008 1.108052
												CHANNELS 6 Xposition Yposition Zposition Xrotation Yrotation Zrotation
												End Site
												{
													OFFSET -188.809540 -114.533607 132.431396
												}
											}
										}
									}
								}
								JOINT mixamorig:RightHandIndex1
								{
									OFFSET -9.108284 -0.517868 2.259835
									CHANNELS 6 Xposition Yposition Zposition Xrotation Yrotation Zrotation
									JOINT mixamorig:RightHandIndex2
									{
										OFFSET -3.699989 0.000000 0.001215
										CHANNELS 6 Xposition Yposition Zposition Xrotation Yrotation Zrotation
										JOINT mixamorig:RightHandIndex3
										{
											OFFSET -2.850006 0.000031 -0.000522
											CHANNELS 6 Xposition Yposition Zposition Xrotation Yrotation Zrotation
											JOINT mixamorig:RightHandIndex4
											{
												OFFSET -2.772186 -0.000015 -0.000020
												CHANNELS 6 Xposition Yposition Zposition Xrotation Yrotation Zrotation
												End Site
												{
													OFFSET -277.218445 0.000000 -0.050231
												}
											}
										}
									}
								}
								JOINT mixamorig:RightHandMiddle1
								{
									OFFSET -9.532516 -0.000031 -0.000023
									CHANNELS 6 Xposition Yposition Zposition Xrotation Yrotation Zrotation
									JOINT mixamorig:RightHandMiddle2
									{
										OFFSET -3.700005 -0.000015 0.003713
										CHANNELS 6 Xposition Yposition Zposition Xrotation Yrotation Zrotation
										JOINT mixamorig:RightHandMiddle3
										{
											OFFSET -2.949974 0.000015 -0.002054
											CHANNELS 6 Xposition Yposition Zposition Xrotation Yrotation Zrotation
											JOINT mixamorig:RightHandMiddle4
											{
												OFFSET -2.946640 0.000000 -0.000156
												CHANNELS 6 Xposition Yposition Zposition Xrotation Yrotation Zrotation
												End Site
												{
													OFFSET -294.664337 0.000000 -0.113670
												}
											}
										}
									}
								}
								JOINT mixamorig:RightHandRing1
								{
									OFFSET -9.103600 -0.043076 -1.865134
									CHANNELS 6 Xposition Yposition Zposition Xrotation Yrotation Zrotation
									JOINT mixamorig:RightHandRing2
									{
										OFFSET -3.379288 0.000000 -0.001055
										CHANNELS 6 Xposition Yposition Zposition Xrotation Yrotation Zrotation
										JOINT mixamorig:RightHandRing3
										{
											OFFSET -2.889687 -0.000015 0.000379
											CHANNELS 6 Xposition Yposition Zposition Xrotation Yrotation Zrotation
											JOINT mixamorig:RightHandRing4
											{
												OFFSET -2.638809 -0.000015 0.000941
												CHANNELS 6 Xposition Yposition Zposition Xrotation Yrotation Zrotation
												End Site
												{
													OFFSET -263.880371 0.000000 0.516020
												}
											}
										}
									}
								}
								JOINT mixamorig:RightHandPinky1
								{
									OFFSET -8.076683 -0.486710 -3.806280
									CHANNELS 6 Xposition Yposition Zposition Xrotation Yrotation Zrotation
									JOINT mixamorig:RightHandPinky2
									{
										OFFSET -3.600014 -0.000015 -0.003747
										CHANNELS 6 Xposition Yposition Zposition Xrotation Yrotation Zrotation
										JOINT mixamorig:RightHandPinky3
										{
											OFFSET -2.099983 0.000000 -0.005739
											CHANNELS 6 Xposition Yposition Zposition Xrotation Yrotation Zrotation
											JOINT mixamorig:RightHandPinky4
											{
												OFFSET -2.115768 -0.000031 -0.003680
												CHANNELS 6 Xposition Yposition Zposition Xrotation Yrotation Zrotation
												End Site
												{
													OFFSET -211.577087 0.000000 -0.350686
												}
											}
										}
									}
								}
							}
						}
					}
				}
				JOINT mixamorig:LeftShoulder
				{
					OFFSET 4.570447 11.014725 -2.160855
					CHANNELS 6 Xposition Yposition Zposition Xrotation Yrotation Zrotation
					JOINT mixamorig:LeftArm
					{
						OFFSET 10.592371 -0.524597 -2.232119
						CHANNELS 6 Xposition Yposition Zposition Xrotation Yrotation Zrotation
						JOINT mixamorig:LeftForeArm
						{
							OFFSET 27.841532 -0.000031 0.000026
							CHANNELS 6 Xposition Yposition Zposition Xrotation Yrotation Zrotation
							JOINT mixamorig:LeftHand
							{
								OFFSET 28.328846 -0.000061 0.000022
								CHANNELS 6 Xposition Yposition Zposition Xrotation Yrotation Zrotation
								JOINT mixamorig:LeftHandThumb1
								{
									OFFSET 2.466141 -1.576172 2.681732
									CHANNELS 6 Xposition Yposition Zposition Xrotation Yrotation Zrotation
									JOINT mixamorig:LeftHandThumb2
									{
										OFFSET 3.217812 -1.872070 1.916482
										CHANNELS 6 Xposition Yposition Zposition Xrotation Yrotation Zrotation
										JOINT mixamorig:LeftHandThumb3
										{
											OFFSET 2.656029 -1.528778 1.514513
											CHANNELS 6 Xposition Yposition Zposition Xrotation Yrotation Zrotation
											JOINT mixamorig:LeftHandThumb4
											{
												OFFSET 2.020889 -1.154053 1.115139
												CHANNELS 6 Xposition Yposition Zposition Xrotation Yrotation Zrotation
												End Site
												{
													OFFSET 190.885437 -115.081749 130.048782
												}
											}
										}
									}
								}
								JOINT mixamorig:LeftHandIndex1
								{
									OFFSET 9.109314 -0.518021 2.259871
									CHANNELS 6 Xposition Yposition Zposition Xrotation Yrotation Zrotation
									JOINT mixamorig:LeftHandIndex2
									{
										OFFSET 3.699989 0.000000 -0.000322
										CHANNELS 6 Xposition Yposition Zposition Xrotation Yrotation Zrotation
										JOINT mixamorig:LeftHandIndex3
										{
											OFFSET 2.850006 0.000000 0.000352
											CHANNELS 6 Xposition Yposition Zposition Xrotation Yrotation Zrotation
											JOINT mixamorig:LeftHandIndex4
											{
												OFFSET 2.774864 -0.000031 -0.000027
												CHANNELS 6 Xposition Yposition Zposition Xrotation Yrotation Zrotation
												End Site
												{
													OFFSET 277.486267 0.000000 -0.009857
												}
											}
										}
									}
								}
								JOINT mixamorig:LeftHandMiddle1
								{
									OFFSET 9.533394 0.000061 0.000044
									CHANNELS 6 Xposition Yposition Zposition Xrotation Yrotation Zrotation
									JOINT mixamorig:LeftHandMiddle2
									{
										OFFSET 3.699989 -0.000015 -0.000231
										CHANNELS 6 Xposition Yposition Zposition Xrotation Yrotation Zrotation
										JOINT mixamorig:LeftHandMiddle3
										{
											OFFSET 2.949997 -0.000015 -0.000059
											CHANNELS 6 Xposition Yposition Zposition Xrotation Yrotation Zrotation
											JOINT mixamorig:LeftHandMiddle4
											{
												OFFSET 2.952896 0.000031 0.000063
												CHANNELS 6 Xposition Yposition Zposition Xrotation Yrotation Zrotation
												End Site
												{
													OFFSET 295.289337 0.000000 0.022810
												}
											}
										}
									}
								}
								JOINT mixamorig:LeftHandRing1
								{
									OFFSET 9.104523 -0.042999 -1.865074
									CHANNELS 6 Xposition Yposition Zposition Xrotation Yrotation Zrotation
									JOINT mixamorig:LeftHandRing2
									{
										OFFSET 3.150009 -0.000031 0.000043
										CHANNELS 6 Xposition Yposition Zposition Xrotation Yrotation Zrotation
										JOINT mixamorig:LeftHandRing3
										{
											OFFSET 2.949982 -0.000015 0.000040
											CHANNELS 6 Xposition Yposition Zposition Xrotation Yrotation Zrotation
											JOINT mixamorig:LeftHandRing4
											{
												OFFSET 2.644348 0.000000 0.000057
												CHANNELS 6 Xposition Yposition Zposition Xrotation Yrotation Zrotation
												End Site
												{
													OFFSET 264.434631 0.000000 0.012105
												}
											}
										}
									}
								}
								JOINT mixamorig:LeftHandPinky1
								{
									OFFSET 8.077789 -0.486847 -3.806259
									CHANNELS 6 Xposition Yposition Zposition Xrotation Yrotation Zrotation
									JOINT mixamorig:LeftHandPinky2
									{
										OFFSET 3.599953 0.000031 0.014727
										CHANNELS 6 Xposition Yposition Zposition Xrotation Yrotation Zrotation
										JOINT mixamorig:LeftHandPinky3
										{
											OFFSET 2.100021 0.000015 0.007705
											CHANNELS 6 Xposition Yposition Zposition Xrotation Yrotation Zrotation
											JOINT mixamorig:LeftHandPinky4
											{
												OFFSET 2.125504 0.000031 0.007517
												CHANNELS 6 Xposition Yposition Zposition Xrotation Yrotation Zrotation
												End Site
												{
													OFFSET 212.550781 0.000000 0.625752
												}
											}
										}
									}
								}
							}
						}
					}
				}
			}
		}
	}
	JOINT mixamorig:RightUpLeg
	{
		OFFSET -8.207787 -6.751648 -1.599560
		CHANNELS 6 Xposition Yposition Zposition Xrotation Yrotation Zrotation
		JOINT mixamorig:RightLeg
		{
			OFFSET -0.000002 -44.370117 0.345942
			CHANNELS 6 Xposition Yposition Zposition Xrotation Yrotation Zrotation
			JOINT mixamorig:RightFoot
			{
				OFFSET 0.000003 -44.423679 -3.043532
				CHANNELS 6 Xposition Yposition Zposition Xrotation Yrotation Zrotation
				JOINT mixamorig:RightToeBase
				{
					OFFSET -0.000002 -8.728671 10.710558
					CHANNELS 6 Xposition Yposition Zposition Xrotation Yrotation Zrotation
					JOINT mixamorig:RightToe_End
					{
						OFFSET -0.000001 -0.000679 9.278119
						CHANNELS 6 Xposition Yposition Zposition Xrotation Yrotation Zrotation
						End Site
						{
							OFFSET 0.000000 -0.067690 927.812134
						}
					}
				}
			}
		}
	}
	JOINT mixamorig:LeftUpLeg
	{
		OFFSET 8.207793 -6.751686 -1.599556
		CHANNELS 6 Xposition Yposition Zposition Xrotation Yrotation Zrotation
		JOINT mixamorig:LeftLeg
		{
			OFFSET -0.000004 -44.370014 0.346954
			CHANNELS 6 Xposition Yposition Zposition Xrotation Yrotation Zrotation
			JOINT mixamorig:LeftFoot
			{
				OFFSET -0.000001 -44.423672 -3.044401
				CHANNELS 6 Xposition Yposition Zposition Xrotation Yrotation Zrotation
				JOINT mixamorig:LeftToeBase
				{
					OFFSET -0.000002 -8.728669 10.710558
					CHANNELS 6 Xposition Yposition Zposition Xrotation Yrotation Zrotation
					JOINT mixamorig:LeftToe_End
					{
						OFFSET -0.000003 -0.000679 9.278133
						CHANNELS 6 Xposition Yposition Zposition Xrotation Yrotation Zrotation
						End Site
						{
							OFFSET 0.000000 -0.068021 927.813477
						}
					}
				}
			}
		}
	}
}
MOTION
Frames: 3
Frame Time: 0.033333
0.000006 104.270477 1.554256 0.000010 0.000003 -0.000113 -0.000005 10.181587 0.131522 0.000001 -0.000003 0.000084 -0.000000 9.893967 -1.470711 0.000001 0.000000 -0.000000 -0.000000 9.220802 -1.370642 0.000000 -0.000000 -0.000000 0.000001 16.740433 -2.049030 0.000000 -0.000000 -0.000000 0.000000 9.617859 1.685014 0.000000 0.000000 0.000000 0.000002 22.037384 7.501101 0.000000 -0.000000 0.000000 -4.569968 11.014880 -2.160881 0.000008 0.000001 -0.000038 -10.592803 -0.524827 -2.231767 59.720230 64.124876 -39.557959 -27.841442 0.000030 0.000617 26.367112 112.476366 -38.622568 -28.328836 0.000021 0.000024 -0.000319 -0.000045 0.000007 -2.464527 -1.574210 2.682104 91.737705 -128.369089 140.428799 -3.214761 -1.872954 1.924642 201.281631 -57.690120 254.412580 -2.654398 -1.527895 1.513080 141.077339 -29.543119 179.457319 -2.018850 -1.152003 1.108073 -0.000000 -0.000004 0.000005 -9.108103 -0.517707 2.260429 191.922469 13.264155 -263.874468 -3.700099 0.000037 0.001300 3.770588 21.374414 -0.707265 -2.850069 0.000086 -0.000490 372.845547 11.170717 -1.261268 -2.772163 -0.000014 -0.000025 -0.000004 0.000001 -0.000000 -9.532507 -0.000009 0.000536 204.156280 -0.801336 -3.191064 -3.700050 -0.000016 0.003742 354.287185 7.188731 0.360212 -2.950038 0.000071 -0.002041 192.264156 -187.411771 -180.796350 -2.946636 -0.000000 -0.000154 0.000000 -0.000001 -0.000001 -9.103594 -0.043086 -1.864590 218.178795 -2.483371 -7.277696 -3.379219 -0.000073 -0.001065 345.968151 -12.106689 -1.491967 -2.889692 0.000061 0.000355 185.496559 -175.384013 -179.778611 -2.638817 -0.000046 0.000937 -0.000001 -0.000000 -0.000000 -8.076607 -0.486843 -3.805817 228.967038 -13.265332 331.028806 -3.599835 -0.000153 -0.003752 158.430814 -151.236357 -185.731148 -2.099833 -0.000019 -0.005808 359.609596 -22.983914 -0.120543 -2.115760 -0.000070 -0.003678 -0.000003 -0.000002 -0.000003 4.570446 11.014691 -2.160851 -0.000018 0.000010 -0.000021 10.592512 -0.524540 -2.232391 60.156727 -60.865387 37.581296 27.841778 -0.000093 -0.000098 27.975241 -112.007664 40.544221 28.328831 -0.000013 0.000034 0.000021 -0.000089 0.000000 2.466142 -1.576174 2.681877 107.797467 137.941230 -153.079538 3.217812 -1.872024 1.916516 253.526404 51.306793 -305.915785 2.655946 -1.528820 1.514609 -172.156257 50.910061 117.952668 2.020903 -1.154069 1.115142 0.000000 0.000004 0.000001 9.109218 -0.517725 2.260078 222.917089 -13.656340 326.130386 3.700017 -0.000013 -0.000334 197.126704 -156.465974 183.598326 2.850009 0.000042 0.000255 34.514356 -10.407093 3.240527 2.774886 0.000003 -0.000032 -0.000001 0.000002 0.000004 9.533407 0.000338 0.000262 228.861730 0.513323 361.145925 3.700016 -0.000018 -0.000245 -351.854053 -9.388997 0.669706 2.950025 0.000015 -0.000161 211.571298 -172.685118 182.071383 2.952863 -0.000029 0.000068 0.000001 0.000000 0.000001 9.104588 -0.042762 -1.864861 232.828308 8.792990 377.593894 3.149984 -0.000002 -0.000017 -176.082277 161.047077 179.345605 2.949967 0.000015 -0.000072 29.504245 4.775903 -1.257938 2.644311 0.000032 0.000054 0.000002 -0.000001 -0.000000 8.077862 -0.486641 -3.806042 232.053874 14.683916 388.389527 3.599933 -0.000029 0.014688 -188.450875 145.183088 182.493352 2.099953 0.000037 0.007575 206.207728 155.898562 -185.690973 2.125487 0.000001 0.007516 0.000001 0.000000 0.000000 -8.207786 -6.751667 -1.599560 -0.077001 -0.000003 0.000080 -0.000002 -44.370110 0.345938 0.153719 -0.000000 -0.000000 0.000000 -44.423679 -3.043532 -0.076700 0.000000 -0.000002 -0.000006 -8.728667 10.710559 -0.000009 -0.000000 -0.000000 -0.000001 -0.000679 9.278123 0.000000 -0.000000 -0.000000 8.207792 -6.751710 -1.599556 -0.074518 -0.000003 0.000081 -0.000002 -44.370014 0.346960 0.148822 0.000002 0.000000 -0.000001 -44.423664 -3.044403 -0.074314 0.000000 -0.000002 -0.000004 -8.728671 10.710558 0.000007 -0.000000 -0.000000 0.000000 -0.000680 9.278137 -0.000000 0.000000 -0.000001 
0.000006 104.270477 1.554256 0.000010 0.000003 -0.000113 -0.000005 10.181587 0.131522 0.000001 -0.000003 0.000084 -0.000000 9.893967 -1.470711 0.000001 0.000000 -0.000000 -0.000000 9.220802 -1.370642 0.000000 -0.000000 -0.000000 0.000001 16.740433 -2.049030 0.000000 -0.000000 -0.000000 0.000000 9.617859 1.685014 0.000000 0.000000 0.000000 0.000002 22.037384 7.501101 0.000000 -0.000000 0.000000 -4.569968 11.014880 -2.160881 0.000008 0.000001 -0.000038 -10.592796 -0.524839 -2.231755 65.419019 64.449856 -44.078158 -27.841457 0.000016 0.000595 36.129512 111.894406 -51.524546 -28.328829 0.000007 0.000009 -0.000317 -0.000044 0.000007 -2.464601 -1.574185 2.682042 107.754895 -141.927834 153.862579 -3.214844 -1.873019 1.924627 229.618720 -49.352290 287.503726 -2.654461 -1.528048 1.513136 164.816672 -34.719081 220.586123 -2.018842 -1.152000 1.108067 -0.000001 -0.000003 0.000002 -9.108272 -0.517841 2.260392 161.033335 33.128951 -121.510131 -3.700111 0.000157 0.001320 32.260852 25.249041 -7.402117 -2.850100 0.000137 -0.000461 379.659589 20.699288 -3.624503 -2.772150 -0.000018 -0.000020 0.000001 -0.000002 0.000001 -9.532620 0.000177 0.000371 119.598648 26.680360 -44.586392 -3.700062 0.000099 0.003722 379.907498 10.809168 -1.880772 -2.950046 0.000081 -0.002042 196.480828 -192.342881 -181.792793 -2.946615 -0.000003 -0.000141 -0.000001 0.000002 -0.000001 -9.103717 -0.042781 -1.864937 74.786747 23.847723 -18.301155 -3.379240 0.000052 -0.001078 370.575820 -7.745536 0.717609 -2.889694 0.000028 0.000356 186.341890 -177.723011 -179.875286 -2.638810 -0.000016 0.000938 0.000002 0.000002 0.000000 -8.076634 -0.486436 -3.806265 404.905881 -4.998522 362.110511 -3.599886 -0.000010 -0.003776 180.063403 -160.733325 -180.042216 -2.099869 -0.000050 -0.005795 350.286443 -21.342005 -1.888832 -2.115767 -0.000071 -0.003680 -0.000000 -0.000005 -0.000003 4.570446 11.014691 -2.160851 -0.000018 0.000010 -0.000021 10.592518 -0.524529 -2.232397 64.937525 -61.719181 41.634818 27.841759 -0.000090 -0.000084 36.619335 -111.982946 52.249540 28.328831 -0.000013 0.000022 0.000023 -0.000089 0.000000 2.466152 -1.576159 2.681864 108.631830 138.658154 -153.703285 3.217806 -1.872017 1.916512 252.736916 48.991912 -306.383271 2.655989 -1.528808 1.514606 -154.207872 47.752841 95.449831 2.020887 -1.154073 1.115147 0.000000 0.000001 0.000004 9.109133 -0.517787 2.260098 229.560199 -30.240987 299.321757 3.700021 0.000009 -0.000373 214.686028 -146.166499 190.860019 2.850038 0.000061 0.000257 44.565526 -19.167562 7.915274 2.774889 -0.000032 -0.000030 -0.000000 -0.000000 -0.000001 9.533360 0.000284 0.000284 252.957367 -10.657178 345.628281 3.700020 -0.000006 -0.000281 -334.314619 -17.437184 4.003766 2.950015 0.000040 -0.000150 214.070792 -168.565859 183.515094 2.952856 -0.000029 0.000061 -0.000001 -0.000001 0.000001 9.104539 -0.042817 -1.864829 261.141792 1.627909 361.899322 3.149990 0.000057 -0.000047 -164.877939 167.073913 178.277076 2.949976 0.000033 -0.000055 26.590968 4.622473 -1.092597 2.644318 0.000031 0.000048 0.000001 -0.000001 -0.000000 8.077829 -0.486678 -3.806026 259.115138 11.013509 372.650094 3.599947 0.000020 0.014663 -178.361607 154.064670 179.531509 2.099954 0.000019 0.007607 197.022653 153.955988 -184.002906 2.125503 0.000010 0.007515 -0.000002 0.000000 0.000000 -8.207786 -6.751667 -1.599560 -0.077001 -0.000003 0.000080 -0.000002 -44.370110 0.345938 0.153719 -0.000000 -0.000000 0.000000 -44.423679 -3.043532 -0.076700 0.000000 -0.000002 -0.000006 -8.728667 10.710559 -0.000009 -0.000000 -0.000000 -0.000001 -0.000679 9.278123 0.000000 -0.000000 -0.000000 8.207792 -6.751710 -1.599556 -0.074518 -0.000003 0.000081 -0.000002 -44.370014 0.346960 0.148822 0.000002 0.000000 -0.000001 -44.423664 -3.044403 -0.074314 0.000000 -0.000002 -0.000004 -8.728671 10.710558 0.000007 -0.000000 -0.000000 0.000000 -0.000680 9.278137 -0.000000 0.000000 -0.000001 
0.000006 104.270477 1.554256 0.000010 0.000003 -0.000113 -0.000005 10.181587 0.131522 0.000001 -0.000003 0.000084 -0.000000 9.893967 -1.470711 0.000001 0.000000 -0.000000 -0.000000 9.220802 -1.370642 0.000000 -0.000000 -0.000000 0.000001 16.740433 -2.049030 0.000000 -0.000000 -0.000000 0.000000 9.617859 1.685014 0.000000 0.000000 0.000000 0.000002 22.037384 7.501101 0.000000 -0.000000 0.000000 -4.569968 11.014880 -2.160881 0.000008 0.000001 -0.000038 -10.592785 -0.524845 -2.231757 70.893586 65.736199 -49.403195 -27.841478 0.000001 0.000594 50.568835 112.724800 -70.746095 -28.328829 0.000007 0.000017 -0.000322 -0.000045 0.000007 -2.464579 -1.574189 2.682020 116.803611 -137.114559 158.422468 -3.214836 -1.873013 1.924607 230.754936 -51.994392 286.900703 -2.654519 -1.528144 1.513094 187.858985 -38.668730 250.527869 -2.018827 -1.151968 1.108066 -0.000003 -0.000002 0.000005 -9.108397 -0.517661 2.260277 130.134693 20.858981 -43.303119 -3.700107 0.000186 0.001328 42.500432 23.220114 -9.124112 -2.850135 0.000111 -0.000435 376.448226 23.517642 -3.446258 -2.772171 -0.000014 -0.000016 -0.000003 0.000001 0.000000 -9.532542 0.000320 0.000250 105.192905 5.081098 -6.805385 -3.700059 0.000149 0.003741 388.784039 12.184075 -3.108290 -2.950072 0.000045 -0.002007 186.604935 -197.349287 -181.007540 -2.946632 0.000014 -0.000152 -0.000000 -0.000001 -0.000000 -9.103611 -0.042692 -1.864970 86.602612 -0.180146 0.203323 -3.379251 0.000104 -0.001058 379.269941 -4.573912 0.774961 -2.889744 0.000029 0.000388 178.410634 -184.943122 -179.932591 -2.638814 -0.000003 0.000939 -0.000001 0.000001 -0.000001 -8.076611 -0.486384 -3.806211 424.250561 -8.967822 365.700267 -3.599898 -0.000001 -0.003784 190.431644 -163.695988 -178.518865 -2.099915 -0.000096 -0.005774 346.135846 -14.588859 -1.833164 -2.115774 -0.000054 -0.003680 0.000003 0.000002 -0.000004 4.570446 11.014691 -2.160851 -0.000018 0.000010 -0.000021 10.592527 -0.524528 -2.232394 69.160897 -63.565347 46.257374 27.841713 -0.000100 -0.000066 50.392429 -113.231559 71.050230 28.328835 -0.000031 0.000014 0.000017 -0.000088 -0.000001 2.466150 -1.576150 2.681868 119.652237 153.152785 -161.431193 3.217820 -1.872010 1.916538 261.694928 45.350950 -314.418688 2.656010 -1.528797 1.514606 -132.700344 46.005306 73.578978 2.020880 -1.154063 1.115145 -0.000000 0.000004 0.000004 9.109230 -0.518012 2.260032 274.193218 -72.087920 291.851524 3.700041 0.000005 -0.000362 224.848830 -143.617513 195.455822 2.850056 0.000057 0.000264 47.548014 -25.074649 11.188949 2.774891 -0.000045 -0.000030 0.000002 0.000001 0.000001 9.533387 0.000051 0.000172 339.701753 -36.830436 353.176870 3.700029 0.000031 -0.000341 -315.742023 -14.864821 6.071939 2.950045 0.000021 -0.000150 218.409902 -165.973228 184.908725 2.952872 -0.000012 0.000057 0.000002 0.000002 0.000001 9.104507 -0.042991 -1.864908 326.944463 -26.355011 352.051254 3.149987 0.000061 -0.000090 -148.797570 173.350870 178.141784 2.949980 0.000046 -0.000062 26.548392 4.092484 -0.965574 2.644328 0.000031 0.000053 0.000001 0.000000 0.000002 8.077793 -0.486885 -3.806233 359.904005 -12.493621 360.040390 3.599933 0.000026 0.014615 -159.903717 163.001932 176.974819 2.099960 0.000035 0.007613 196.581136 157.303997 -183.376523 2.125504 0.000001 0.007515 -0.000001 0.000007 -0.000000 -8.207786 -6.751667 -1.599560 -0.077001 -0.000003 0.000080 -0.000002 -44.370110 0.345938 0.153719 -0.000000 -0.000000 0.000000 -44.423679 -3.043532 -0.076700 0.000000 -0.000002 -0.000006 -8.728667 10.710559 -0.000009 -0.000000 -0.000000 -0.000001 -0.000679 9.278123 0.000000 -0.000000 -0.000000 8.207792 -6.751710 -1.599556 -0.074518 -0.000003 0.000081 -0.000002 -44.370014 0.346960 0.148822 0.000002 0.000000 -0.000001 -44.423664 -3.044403 -0.074314 0.000000 -0.000002 -0.000004 -8.728671 10.710558 0.000007 -0.000000 -0.000000 0.000000 -0.000680 9.278137 -0.000000 0.000000 -0.000001 
